<?xml version="1.0" encoding="UTF-8" standalone="no"?>
<!-- Created with Inkscape (http://www.inkscape.org/) -->

<svg
   version="1.1"
   id="svg1775"
   width="373"
   height="372"
   viewBox="0 0 373 372"
   sodipodi:docname="Logo_Paluma.svg"
   inkscape:version="1.2.2 (b0a8486541, 2022-12-01)"
   xmlns:inkscape="http://www.inkscape.org/namespaces/inkscape"
   xmlns:sodipodi="http://sodipodi.sourceforge.net/DTD/sodipodi-0.dtd"
   xmlns="http://www.w3.org/2000/svg"
   xmlns:svg="http://www.w3.org/2000/svg">
  <defs
     id="defs1779" />
  <sodipodi:namedview
     id="namedview1777"
     pagecolor="#ffffff"
     bordercolor="#666666"
     borderopacity="1.0"
     inkscape:showpageshadow="2"
     inkscape:pageopacity="0.0"
     inkscape:pagecheckerboard="0"
     inkscape:deskcolor="#d1d1d1"
     showgrid="false"
     inkscape:zoom="4.4631363"
     inkscape:cx="364.09374"
     inkscape:cy="222.71334"
     inkscape:window-width="2560"
     inkscape:window-height="1377"
     inkscape:window-x="-8"
     inkscape:window-y="-8"
     inkscape:window-maximized="1"
     inkscape:current-layer="g1781" />
  <g
     inkscape:groupmode="layer"
     inkscape:label="Image"
     id="g1781">
    <path
       style="fill:#003560;fill-opacity:1"
       d="m 10,344.13084 v -16.86916 l 3.75,-0.61983 c 2.0625,-0.34091 6.842248,-0.62479 10.621662,-0.63084 9.785841,-0.0157 26.855269,-2.72411 35.628338,-5.65322 27.845862,-9.29701 45.6802,-23.97959 57.49183,-47.33161 4.4695,-8.83636 10.24,-26.9099 12.50101,-39.15382 1.15503,-6.2548 2.81403,-15.19736 3.68666,-19.87236 0.87264,-4.675 2.23418,-9.77789 3.02565,-11.33975 1.33769,-2.63976 1.56388,-2.72676 3.21184,-1.23538 4.16806,3.77205 10.85574,23.59703 19.08482,56.57513 4.38209,17.56127 11.66128,37.43652 17.11095,46.72014 1.86298,3.17362 6.11568,8.54249 9.45043,11.93082 4.77085,4.8475 7.20742,6.50041 11.4315,7.75482 19.34521,5.74491 35.64602,-5.01744 45.62843,-30.12543 1.91999,-4.82919 4.10474,-10.13035 4.855,-11.78035 2.74202,-6.03035 9.05148,-33.58792 13.06336,-57.05627 2.66542,-15.59197 6.78745,-48.77895 11.97072,-96.37781 5.21262,-47.868417 7.3376,-60.661858 8.8836,-53.483761 1.33971,6.220309 5.83705,37.128901 9.14374,62.841541 3.89096,30.25601 5.82984,43.08206 7.9478,52.5763 0.79751,3.575 2.60122,12.575 4.00825,20 6.5676,34.65771 18.29451,66.95849 31.27032,86.13142 5.54067,8.18684 14.27346,16.90383 21.44758,21.40878 l 4.71349,2.9598 0.0365,19.75 L 360,361 H 185 10 Z M 144.97804,215.75 c -0.0466,-2.65511 -3.95439,-9.75 -5.37013,-9.75 -1.99768,0 -2.51086,1.01277 -3.2516,6.41707 L 135.72815,217 h 4.63593 c 3.05378,0 4.62842,-0.4266 4.61396,-1.25 z m 155.57993,-2.5 c -1.38983,-7.84203 0.0774,-7.25 -17.96707,-7.25 h -16.27432 l -1.15829,3.86602 C 262.89503,217.42008 261.86731,217 282.61129,217 h 18.61129 z M 10,263.68335 v -46.6253 L 23.25,216.77903 36.5,216.5 36.80226,211.25 37.104519,206 H 23.55226 10 V 108.5 11 h 175 175 v 97.5 97.5 h -19.61354 -19.61355 l 0.71092,4.75 c 0.391,2.6125 0.91865,5.0875 1.17256,5.5 0.2539,0.4125 8.76009,0.75 18.90263,0.75 H 360 v 42.06809 42.0681 l -2.90643,-2.06956 C 349.27444,293.49892 336.38746,270.49288 330.16874,251 c -7.97801,-25.00745 -7.83403,-24.40303 -16.67488,-70 -1.333,-6.875 -3.61366,-21.275 -5.06814,-32 -1.45447,-10.725 -3.43857,-25.35 -4.4091,-32.5 -4.93031,-36.32197 -7.31926,-49.341338 -10.58094,-57.664131 -4.16229,-10.620865 -10.04671,-14.537877 -16.93171,-11.27073 -8.8998,4.223232 -13.29881,19.944056 -18.59048,66.437111 -1.15793,10.17376 -2.46062,21.19775 -2.89485,24.49775 -0.43424,3.3 -2.19229,17.925 -3.90678,32.5 -4.52514,38.46855 -6.60115,52.20427 -11.10875,73.5 -4.88314,23.06992 -6.04704,27.20981 -11.24574,40 -6.11472,15.04383 -12.74985,23.46089 -19.69695,24.98673 -4.86317,1.06813 -10.90929,-2.44225 -15.88838,-9.22482 -5.50237,-7.49539 -13.13009,-27.1334 -18.3141,-47.15074 -10.69229,-41.28682 -15.56548,-54.90467 -22.58063,-63.1003 -4.15943,-4.85936 -10.30541,-7.3837 -15.92518,-6.54097 -11.45921,1.71842 -15.72402,9.44451 -20.83374,37.74226 -5.10086,28.2487 -10.6441,43.43761 -20.701052,56.72254 -14.919233,19.70786 -38.48269,30.02559 -72.510572,31.75021 L 10,310.30864 Z M 88.76747,211.25 88.5,186.5 H 64 39.5 L 39.23253,211.25 38.965061,236 H 64 89.034939 Z M 187.5,186.5 c -2.25157,-0.18158 -4.41337,0.17202 -6.5,-0.0104 V 236 h 3.51747 3.51747 C 187.85663,219.5 187.67831,203 187.5,186.5 Z m 14,0 h -3 -3 c -0.17831,16.5 -0.35663,33 -0.53494,49.5 H 198.5 202.03494 C 201.85663,219.5 201.67831,203 201.5,186.5 Z m 14,0 h -3 -3 c -0.0382,46.03782 0.0708,1.6911 -0.0504,49.40561 2.30685,0.0669 4.51311,0.10019 6.58532,0.0944 C 215.85663,219.50001 215.67831,203 215.5,186.5 Z m 14,0 h -3 -3 c 0.21379,16.5 0.1475,32.94399 0.0252,49.5 2.35663,0 4.15311,0 6.50974,0 -0.17831,-16.5 -0.35663,-33 -0.53494,-49.5 z M 114.82732,213.75 C 117.38765,205.28003 118.4022,206 103.90638,206 H 91 v 5.5 5.5 h 11.42245 11.42245 z M 178,211.5 V 206 h -7.51342 -7.51342 l 1.62213,3.75 c 0.89217,2.0625 1.8507,4.5375 2.13005,5.5 0.40258,1.38705 1.62443,1.75 5.89129,1.75 H 178 Z m 14.80226,-0.3286 c 0.24182,-4.13733 -0.008,-5.1714 -1.25,-5.1714 -1.21767,0 -1.55226,1.20349 -1.55226,5.58333 0,7.34326 2.36934,6.99496 2.80226,-0.41193 z M 207,211.5 c 0,-4.22222 -0.34848,-5.5 -1.5,-5.5 -1.15152,0 -1.5,1.27778 -1.5,5.5 0,4.22222 0.34848,5.5 1.5,5.5 1.15152,0 1.5,-1.27778 1.5,-5.5 z m 14,0 c 0,-4.22222 -0.34848,-5.5 -1.5,-5.5 -1.12644,0 -1.5,1.2037 -1.5,4.83333 0,2.65834 0.3,5.13334 0.66667,5.5 C 220.32558,217.99224 221,216.59522 221,211.5 Z m 22.375,2.375 C 244.853,206.48499 244.55277,206 238.5,206 H 233 v 5.5 5.5 h 4.875 c 4.66,0 4.90256,-0.13782 5.5,-3.125 z"
       id="path2308"
       sodipodi:nodetypes="ccssssssssssssssssssssssccccccssscsssscsscsccccccccccccccccssscccssssssssssssssssssssccccccccccccccccccccccccccccccccccccsscccccsccccsssccsssssssssssssssscccss" />
  </g>
</svg>
